<svg width="24" height="24" viewBox="0 0 24 24" fill="none" xmlns="http://www.w3.org/2000/svg">
<path d="M19.15 8C18.9755 7.69772 18.7249 7.44638 18.4232 7.27095C18.1214 7.09552 17.779 7.00211 17.43 7H15V5C15 4.73478 14.8946 4.48043 14.7071 4.29289C14.5196 4.10536 14.2652 4 14 4H4C3.46957 4 2.96086 4.21071 2.58579 4.58579C2.21071 4.96086 2 5.46957 2 6V16C2.00036 16.3507 2.09294 16.6952 2.26846 16.9988C2.44398 17.3025 2.69626 17.5546 3 17.73C2.9642 18.6583 3.29861 19.5627 3.92967 20.2444C4.56073 20.9261 5.43674 21.3292 6.365 21.365C7.29326 21.4008 8.19772 21.0664 8.87941 20.4353C9.56111 19.8043 9.9642 18.9283 10 18H13.1C13.2106 18.8367 13.6215 19.6047 14.2561 20.161C14.8908 20.7173 15.706 21.024 16.55 21.024C17.394 21.024 18.2092 20.7173 18.8439 20.161C19.4785 19.6047 19.8894 18.8367 20 18C20.5304 18 21.0391 17.7893 21.4142 17.4142C21.7893 17.0391 22 16.5304 22 16V13C21.9984 12.8176 21.9502 12.6386 21.86 12.48L19.15 8ZM15 9H17.43L19.23 12H15V9ZM6.5 19C6.20333 19 5.91332 18.912 5.66664 18.7472C5.41997 18.5824 5.22771 18.3481 5.11418 18.074C5.00065 17.7999 4.97094 17.4983 5.02882 17.2074C5.0867 16.9164 5.22956 16.6491 5.43934 16.4393C5.64912 16.2296 5.91639 16.0867 6.20736 16.0288C6.49834 15.9709 6.79994 16.0007 7.07403 16.1142C7.34811 16.2277 7.58238 16.42 7.7472 16.6666C7.91203 16.9133 8 17.2033 8 17.5C8 17.8978 7.84196 18.2794 7.56066 18.5607C7.27936 18.842 6.89782 19 6.5 19ZM16.5 19C16.2033 19 15.9133 18.912 15.6666 18.7472C15.42 18.5824 15.2277 18.3481 15.1142 18.074C15.0006 17.7999 14.9709 17.4983 15.0288 17.2074C15.0867 16.9164 15.2296 16.6491 15.4393 16.4393C15.6491 16.2296 15.9164 16.0867 16.2074 16.0288C16.4983 15.9709 16.7999 16.0007 17.074 16.1142C17.3481 16.2277 17.5824 16.42 17.7472 16.6666C17.912 16.9133 18 17.2033 18 17.5C18 17.8978 17.842 18.2794 17.5607 18.5607C17.2794 18.842 16.8978 19 16.5 19Z" fill="black"/>
</svg>
