<svg width="36" height="36" viewBox="0 0 36 36" fill="none" xmlns="http://www.w3.org/2000/svg">
<path d="M26.87 14.2799C25.072 11.2904 22.5994 8.76304 19.65 6.89995C18.3209 6.05759 16.8058 5.55339 15.237 5.43137C13.6682 5.30935 12.0934 5.57322 10.65 6.19995C9.3875 6.79545 8.28894 7.68932 7.44918 8.80436C6.60941 9.9194 6.05369 11.2221 5.83 12.5999C5.75 13.0899 5.68 13.5999 5.62 13.9999H4.62C4.27736 13.996 3.93734 14.06 3.61963 14.1884C3.30193 14.3168 3.01286 14.507 2.76917 14.7479C2.52548 14.9888 2.33201 15.2756 2.19998 15.5918C2.06795 15.908 1.99998 16.2473 2 16.5899V25.1399C2 25.368 2.09061 25.5868 2.25189 25.7481C2.41317 25.9093 2.63191 25.9999 2.86 25.9999H4.59V25.6099C4.58745 24.684 4.80776 23.7711 5.23234 22.9482C5.65692 22.1254 6.27329 21.4168 7.0294 20.8823C7.7855 20.3479 8.65912 20.0032 9.57648 19.8775C10.4938 19.7517 11.428 19.8486 12.3 20.1599L11.3 21.1599C10.5014 21.0131 9.67814 21.0821 8.91517 21.3598C8.15219 21.6376 7.47723 22.114 6.96 22.7399C6.69332 23.0075 6.47957 23.323 6.33 23.6699C6.0223 24.2654 5.8515 24.922 5.83006 25.5919C5.80862 26.2618 5.9371 26.928 6.2061 27.5419C6.4751 28.1558 6.87783 28.7019 7.38487 29.1402C7.89192 29.5785 8.49047 29.898 9.13681 30.0754C9.78315 30.2528 10.4609 30.2835 11.1207 30.1654C11.7804 30.0473 12.4055 29.7834 12.9502 29.3928C13.4948 29.0022 13.9454 28.4949 14.2689 27.9079C14.5924 27.3209 14.7807 26.669 14.82 25.9999H20.3V25.6099C20.298 24.6852 20.5183 23.7736 20.9424 22.9518C21.3664 22.13 21.9817 21.4222 22.7365 20.8879C23.4913 20.3537 24.3635 20.0087 25.2795 19.882C26.1955 19.7553 27.1285 19.8506 28 20.1599L27 21.1599C26.2014 21.0131 25.3781 21.0821 24.6152 21.3598C23.8522 21.6376 23.1772 22.114 22.66 22.7399C22.3933 23.0075 22.1796 23.323 22.03 23.6699C21.7265 24.2653 21.5594 24.9208 21.5408 25.5888C21.5223 26.2568 21.6527 26.9205 21.9227 27.5318C22.1927 28.1431 22.5955 28.6866 23.1017 29.1228C23.6079 29.559 24.205 29.877 24.8495 30.0536C25.4939 30.2303 26.1697 30.2612 26.8276 30.1441C27.4855 30.027 28.1091 29.7649 28.653 29.3767C29.197 28.9885 29.6477 28.4841 29.9723 27.9C30.297 27.3159 30.4875 26.6668 30.53 25.9999H33.14C33.3681 25.9999 33.5868 25.9093 33.7481 25.7481C33.9094 25.5868 34 25.368 34 25.1399V23.3599C33.9924 21.2686 33.2869 19.2396 31.9953 17.5947C30.7037 15.9499 28.8999 14.7833 26.87 14.2799V14.2799ZM12 13.9999H8C8 13.6499 8.1 13.2899 8.16 12.9299C8.32799 11.8367 8.77135 10.8041 9.44836 9.92945C10.1254 9.05476 11.0138 8.36668 12.03 7.92995L12 13.9999ZM10.36 28.3599C9.86555 28.3599 9.3822 28.2133 8.97107 27.9386C8.55995 27.6639 8.23952 27.2735 8.0503 26.8167C7.86108 26.3598 7.81157 25.8572 7.90804 25.3722C8.0045 24.8873 8.2426 24.4418 8.59223 24.0922C8.94186 23.7426 9.38732 23.5044 9.87227 23.408C10.3572 23.3115 10.8599 23.361 11.3167 23.5502C11.7735 23.7395 12.164 24.0599 12.4387 24.471C12.7134 24.8821 12.86 25.3655 12.86 25.8599C12.86 26.523 12.5966 27.1589 12.1278 27.6277C11.6589 28.0966 11.023 28.3599 10.36 28.3599V28.3599ZM19 18.9999H16V16.9999H19V18.9999ZM13 13.9999V7.46995C14.8789 7.21419 16.7883 7.62082 18.4 8.61995C20.6145 10.012 22.5203 11.843 24 13.9999H13ZM26.06 28.3599C25.5655 28.3599 25.0822 28.2133 24.6711 27.9386C24.26 27.6639 23.9395 27.2735 23.7503 26.8167C23.5611 26.3598 23.5116 25.8572 23.608 25.3722C23.7045 24.8873 23.9426 24.4418 24.2922 24.0922C24.6419 23.7426 25.0873 23.5044 25.5723 23.408C26.0572 23.3115 26.5599 23.361 27.0167 23.5502C27.4735 23.7395 27.864 24.0599 28.1387 24.471C28.4134 24.8821 28.56 25.3655 28.56 25.8599C28.56 26.523 28.2966 27.1589 27.8278 27.6277C27.3589 28.0966 26.723 28.3599 26.06 28.3599V28.3599Z" fill="black"/>
</svg>
