<?xml version="1.0" standalone="no"?>
<svg xmlns="http://www.w3.org/2000/svg" xmlns:xlink="http://www.w3.org/1999/xlink" id="body_1" width="48" height="48">

<g transform="matrix(0.09375 0 0 0.09375 0 0)">
	<g>
        <path d="M421 180.863L421 118.80601L365.3 63.106007C 359.442 57.24801 359.442 47.751007 365.3 41.893005C 371.158 36.035004 380.655 36.035004 386.513 41.893005L386.513 41.893005L442.213 97.593C 447.8391 103.21901 450.9999 110.84955 451 118.806L451 118.806L451 150.862L421 180.863z" stroke="none" fill="#BDF7F7" fill-rule="nonzero" />
        <path d="M451 264.501L421 210.863L421 439.5C 421 447.784 414.284 454.5 406 454.5C 397.716 454.5 391 447.784 391 439.5L391 439.5L391 324.5C 391 291.363 364.137 264.5 331 264.5L331 264.5L301 279.5L331 294.5C 347.569 294.5 361 307.931 361 324.5L361 324.5L361 439.5C 361 464.353 381.147 484.5 406 484.5C 430.853 484.5 451 464.353 451 439.5L451 439.5L451 264.501z" stroke="none" fill="#504B83" fill-rule="nonzero" />
        <path d="M301 7.5L271 7.5L271 127.5L331 67.5L331 37.5C 331 20.93 317.57 7.5 301 7.5z" stroke="none" fill="#F52314" fill-rule="nonzero" />
        <path d="M271 7.5L106 7.5C 89.43 7.5 76 20.93 76 37.5L76 37.5L76 67.5L301 142.5L301 37.5C 301 20.93 287.57 7.5 271 7.5z" stroke="none" fill="#FF4D1C" fill-rule="nonzero" />
        <path d="M331 324.5L331 489.5L211 489.5L301 324.5L331 324.5z" stroke="none" fill="#F52314" fill-rule="nonzero" />
        <path d="M76 324.5L301 324.5L301 489.5L76 489.5L76 324.5z" stroke="none" fill="#FF4D1C" fill-rule="nonzero" />
        <path d="M331 474.5L301 474.5L301 504.5L331 504.5C 339.284 504.5 346 497.784 346 489.5C 346 481.216 339.284 474.5 331 474.5z" stroke="none" fill="#5B3364" fill-rule="nonzero" />
        <path d="M316 489.5C 316 481.216 309.284 474.5 301 474.5L301 474.5L76 474.5C 67.716 474.5 61 481.216 61 489.5C 61 497.784 67.716 504.5 76 504.5L76 504.5L301 504.5C 309.284 504.5 316 497.784 316 489.5z" stroke="none" fill="#504B83" fill-rule="nonzero" />
        <path d="M301 67.5L241 196L301 324.5L331 324.5L331 67.5L301 67.5z" stroke="none" fill="#7CF0EE" fill-rule="nonzero" />
        <path d="M76 67.5L76 324.5L301 324.5L301 234.5L211 166L301 97.5L301 67.5L76 67.5z" stroke="none" fill="#BDF7F7" fill-rule="nonzero" />
        <path d="M226 264.5L203.996 279.5L226 294.5L271 294.5L271 264.5L226 264.5z" stroke="none" fill="#5B3364" fill-rule="nonzero" />
        <path d="M181 264.5L158.996 279.5L181 294.5L226 294.5L226 264.5L181 264.5z" stroke="none" fill="#504B83" fill-rule="nonzero" />
        <path d="M136 264.5L181 264.5L181 294.5L136 294.5L136 264.5z" stroke="none" fill="#4663A2" fill-rule="nonzero" />
        <path d="M271 97.5L211 166L271 234.5L301 234.5L301 97.5L271 97.5z" stroke="none" fill="#3193E0" fill-rule="nonzero" />
        <path d="M106 97.5L271 97.5L271 234.5L106 234.5L106 97.5z" stroke="none" fill="#26ABFF" fill-rule="nonzero" />
        <path d="M421 150.863L406 165.863L406 249.501L421 264.501L451 264.501L451 150.864L421 150.863z" stroke="none" fill="#F52314" fill-rule="nonzero" />
        <path d="M406 150.863C 397.716 150.863 391 157.57901 391 165.863L391 165.863L391 249.501C 391 257.785 397.716 264.501 406 264.501L406 264.501L421 264.501L421 150.864L406 150.863z" stroke="none" fill="#FF4D1C" fill-rule="nonzero" />
        <path d="M308.5 234.5L308.5 97.5C 308.5 93.357864 305.14215 90 301 90L301 90L106 90C 101.857864 90 98.5 93.357864 98.5 97.5L98.5 97.5L98.5 234.5C 98.5 238.64214 101.857864 242 106 242L106 242L301 242C 305.14215 242 308.5 238.64214 308.5 234.5zM293.5 227L113.5 227L113.5 105L293.5 105zM136 257C 131.85786 257 128.5 260.35785 128.5 264.5L128.5 264.5L128.5 294.5C 128.5 298.64215 131.85786 302 136 302L136 302L271 302C 275.14215 302 278.5 298.64215 278.5 294.5L278.5 294.5L278.5 264.5C 278.5 260.35785 275.14215 257 271 257zM218.5 272L218.5 287L188.5 287L188.5 272zM143.5 272L173.5 272L173.5 287L143.5 287zM263.5 287L233.5 287L233.5 272L263.5 272z" stroke="none" fill="#000000" fill-rule="nonzero" />
        <path d="M447.517 92.291L391.817 36.591C 387.567 32.341 381.917 30.001 375.90698 30.001C 369.89697 30.001 364.24698 32.342 359.99698 36.591C 351.22598 45.364 351.22598 59.637 359.99698 68.41L359.99698 68.41L413.50098 121.913L413.50098 143.363L406.00098 143.363C 393.59497 143.363 383.50098 153.45601 383.50098 165.863L383.50098 165.863L383.50098 249.501C 383.50098 261.90802 393.59497 272.001 406.00098 272.001L406.00098 272.001L413.50098 272.001L413.50098 439.5C 413.50098 443.636 410.13696 447 406.00098 447C 401.865 447 398.50098 443.636 398.50098 439.5L398.50098 439.5L398.50098 324.5C 398.50098 287.28 368.22098 257 331.00098 257C 326.85883 257 323.50098 260.35785 323.50098 264.5L323.50098 264.5L323.50098 317L83.50098 317L83.50098 75L323.50098 75L323.50098 234.5C 323.50098 238.642 326.85797 242 331.00098 242C 335.14398 242 338.50098 238.642 338.50098 234.5L338.50098 234.5L338.50098 37.5C 338.5 16.822 321.678 0 301 0L301 0L106 0C 85.322 0 68.5 16.822 68.5 37.5L68.5 37.5L68.5 468.29C 59.771 471.38602 53.5 479.72202 53.5 489.5C 53.5 501.907 63.594 512 76 512L76 512L331 512C 343.406 512 353.5 501.907 353.5 489.5C 353.5 479.723 347.229 471.386 338.5 468.29L338.5 468.29L338.5 303.29C 347.229 306.38602 353.5 314.72202 353.5 324.5L353.5 324.5L353.5 439.5C 353.5 468.449 377.052 492 406 492C 434.948 492 458.5 468.449 458.5 439.5L458.5 439.5L458.5 118.807C 458.5 108.791 454.6 99.374 447.517 92.291zM426.304 113.503L370.60397 57.802998C 367.67996 54.878998 367.67996 50.121 370.60397 47.197C 372.01996 45.78 373.90396 45 375.90698 45C 377.91 45 379.79398 45.78 381.21 47.197L381.21 47.197L436.91 102.897C 441.16 107.147 443.501 112.797005 443.501 118.80701L443.501 118.80701L443.501 143.36401L428.501 143.36401L428.501 118.807014C 428.50024 116.81778 427.71008 114.91016 426.30402 113.50301zM398.5 249.501L398.5 165.863C 398.5 161.72801 401.864 158.363 406 158.363L406 158.363L443.5 158.363L443.5 257L406 257C 401.864 257.001 398.5 253.637 398.5 249.501zM323.5 332L323.5 467L83.5 467L83.5 332zM106 15L301 15C 313.406 15 323.5 25.093 323.5 37.5L323.5 37.5L323.5 60L83.5 60L83.5 37.5C 83.5 25.093 93.594 15 106 15zM331 497L76 497C 71.864 497 68.5 493.636 68.5 489.5C 68.5 485.364 71.864 482 76 482L76 482L331 482C 335.136 482 338.5 485.364 338.5 489.5C 338.5 493.636 335.136 497 331 497zM406 477C 385.322 477 368.5 460.178 368.5 439.5L368.5 439.5L368.5 324.5C 368.5 306.39 355.596 291.239 338.5 287.755L338.5 287.755L338.5 272.535C 363.908 276.185 383.5 298.098 383.5 324.501L383.5 324.501L383.5 439.501C 383.5 451.90802 393.594 462.001 406 462.001C 418.406 462.001 428.5 451.90802 428.5 439.501L428.5 439.501L428.5 272.001L443.5 272.001L443.5 439.5C 443.5 460.178 426.678 477 406 477z" stroke="none" fill="#000000" fill-rule="nonzero" />
	</g>
</g>
</svg>